<?xml version="1.0" encoding="utf-8"?>
<!-- Generator: Adobe Illustrator 23.1.1, SVG Export Plug-In . SVG Version: 6.00 Build 0)  -->
<svg version="1.1" id="Livello_1" xmlns="http://www.w3.org/2000/svg" xmlns:xlink="http://www.w3.org/1999/xlink" x="0px" y="0px"
	 viewBox="0 0 200 200" style="enable-background:new 0 0 200 200;" xml:space="preserve">
<style type="text/css">
	.st0{fill:#9BAEB4;}
	.st1{fill:#666666;}
	.st2{fill:#90A7AC;}
</style>
<g>
	<path class="st0" d="M142.1,136.85c-0.25,0.42-0.41,0.3-0.53-0.09C141.75,136.76,141.93,136.79,142.1,136.85"/>
	<path class="st1" d="M129.19,36.29c0-0.03,0.01-0.06,0.02-0.09c1.67-5.75,2.14-6.1,8.13-6.11c5.47-0.01,10.93-0.02,16.4,0.01
		c0.99,0.01,2.38-0.41,2.25,1.45c-0.11,1.52-0.52,2.56-2.43,2.52c-3.73-0.09-7.47,0.01-11.2,0.04c-2-0.02-4.01-0.09-6.01-0.06
		c-1.2,0.02-2.27,0.48-2.19,1.88c0.08,1.48,2.64,1.06,3.4,1.07c4.55,0.06,7.84-0.2,12.4-0.13c1.01,0.01,2.64-0.64,2.5,1.44
		c-0.1,1.44-0.43,2.5-2.38,2.54c-4.65,0.1-9.29,0.29-13.92-0.07c-2.06-0.16-3.2,0.23-3.36,2.63c-0.1,1.61,0.09,3.89-2.82,3.71
		c-1.58-0.1-2.35-0.35-1.98-2.23C128.54,42.05,128.81,39.16,129.19,36.29"/>
	<path class="st2" d="M145.39,129.82v0.87c-0.18-0.1-0.48-0.17-0.52-0.31C144.77,130.01,145.02,129.83,145.39,129.82"/>
	<polyline class="st0" points="101.55,59 101.55,59 102.55,59 	"/>
	<path class="st1" d="M175.68,74.74c0.05-6.87-1.95-12.98-6.11-18.27c-2.17-2.75-3.55-5.01-2.94-8.96
		c0.84-5.43,0.27-11.09,0.19-16.65c-0.05-4.05-1.86-7.15-5.41-9.19c-4.65-2.67-9.32-5.34-13.97-8.03
		c-3.72-2.15-7.41-2.14-11.13,0.02c-4.09,2.38-7.53,5.22-11.76,7.34c-2,1-4.03,3.3-6.11,3.02c-2.17-0.3-4.11-2.19-6.21-3.29
		c-9.37-4.96-18.99-5.28-28.23-0.15c-16.79,9.33-33.44,18.9-49.93,28.75c-8.99,5.37-13.61,13.79-13.82,24.3
		c-0.2,9.39-0.04,18.78-0.04,28.18c0,9.39-0.16,18.78,0.03,28.17c0.22,10.8,4.9,19.4,14.23,24.92
		c16.13,9.54,32.42,18.83,48.75,28.05c9.7,5.47,19.7,5.47,29.4,0c16.33-9.21,32.61-18.51,48.75-28.05
		c9.32-5.51,14.11-14.11,14.22-24.92C175.77,111.57,175.56,93.15,175.68,74.74z M142.32,108.74c-1.1,14.21-6.8,26.08-18.55,34.61
		c-7.36,5.35-15.72,7.44-24.64,7.44c-0.7,0-1.4-0.01-2.1-0.04c-5.45-0.2-5.45-0.14-5.46-5.49c-0.01-6.32,0.08-12.64-0.07-18.95
		c-0.05-2.1,0.34-2.97,2.46-2.97c0.13,0,0.27,0,0.41,0.01c0.92,0.04,1.83,0.07,2.74,0.07c2.62,0,5.23-0.24,7.86-1.14
		c7.82-2.69,11.4-8.26,12.07-16.08c0.25-2.91,0.25-5.86-0.53-8.73c-2.1-7.79-7.41-11.98-16.47-12.71c-1.76-0.14-3.53-0.17-5.3-0.17
		c-0.99,0-1.98,0.01-2.96,0.01c-0.95,0-1.91-0.01-2.86-0.04c-0.04,0-0.08,0-0.12,0c-1.78,0-1.23,1.31-1.23,2.22
		c-0.04,16.72-0.05,33.44-0.07,50.15c0,3.85-0.07,7.71,0.03,11.56c0.03,1.42-0.43,1.81-1.77,1.81h-0.08
		c-4.16-0.04-8.32-0.08-12.47-0.08c-2.8,0-5.6,0.01-8.4,0.05h-0.08c-1.62,0-1.95-0.59-1.94-2.11c0.05-14.72,0.03-29.43,0.03-44.15
		h-0.07c0-14.56,0.03-29.12-0.04-43.68c-0.01-1.69,0.29-2.35,2.14-2.35h0.09c11.44,0.13,22.89,0.01,34.33,0.18
		c6.62,0.1,13.04,1.47,19.11,4.2c6.91,3.11,12.22,8.01,16.54,14.24C141.7,86.4,143.21,97.29,142.32,108.74z M164.15,39.24
		c0,2.64-0.04,5.28,0.01,7.92c0.06,3.24-1.4,5.57-4.13,7.16c-4.56,2.66-9.12,5.3-13.7,7.92c-2.8,1.59-5.64,1.85-8.54,0.16
		c-4.79-2.8-9.65-5.49-14.4-8.35c-2.4-1.45-3.68-3.65-3.65-6.59c0.06-5.64,0.05-11.29,0.01-16.93c-0.02-2.83,1.21-4.95,3.55-6.33
		c5.02-2.96,10.08-5.83,15.18-8.64c2.19-1.21,4.61-1.26,6.81-0.05c5.17,2.86,10.32,5.77,15.37,8.84c2.28,1.39,3.52,3.62,3.5,6.42
		C164.13,33.59,164.15,36.41,164.15,39.24z"/>
</g>
</svg>
